<svg xmlns="http://www.w3.org/2000/svg" width="799.758" height="662.331" viewBox="0 0 799.758 662.331" xmlns:xlink="http://www.w3.org/1999/xlink" role="img" artist="Katerina Limpitsouni" source="https://undraw.co/">
  <g id="Group_246" data-name="Group 246" transform="translate(-560 -209)">
    <g id="Group_245" data-name="Group 245" transform="translate(79.892 77.618)">
      <path id="Path_4025-1269" data-name="Path 4025" d="M1078.184,749.172l-349.74.265c-.834,0-1.51-.46-1.51-1.028s.676-1.028,1.51-1.028l349.74-.265c.834,0,1.51.46,1.51,1.028S1079.019,749.172,1078.184,749.172Z" transform="translate(12.113 28.424)" fill="#cacaca"/>
      <path id="Path_4087-1270" data-name="Path 4087" d="M848.48,178.274h71.808c-.155-.863-.328-1.727-.509-2.59h-71.3V80.774q-7.2-4.67-14.676-8.84v103.75H702.584V41.08c-2.391.121-4.791.285-7.183.492s-5,.466-7.493.751V175.684H500.575l-.449-.492L602.193,63.172c-9.444,3.056-18.871,6.2-28.3,9.28L498.848,154.8V93.231q-7.329,1.545-14.676,2.814v61.6l-51.314-56.312q-10.023.242-20.046-.207l67.475,74.044-.449.492H300.275V78.011c-4.886-1.364-9.781-2.719-14.676-4.032v101.7H120.582l-.052,2.59H285.616v88.055H126.7c.147.863.294,1.727.449,2.59H285.616v83.739H153.594q.622,1.295,1.269,2.59H285.616v85.69q7.355,1.2,14.676,2.521V355.248h183.88v94.962c4.766,2.035,9.67-.323,14.676,1.016V355.248h189.06v91.975c4.869,1.761,9.761-1.583,14.676,0V355.248H833.8v87.365c4.923-.361,9.823.9,14.676,0V355.248h57.391c-.164-.863-.311-1.727-.458-2.59H848.437V268.919h67.25c.207-.863.414-1.727.613-2.59H848.48Zm-14.676,0v88.055H702.584V178.274Zm-145.9,88.055H498.848V178.274h189.06ZM300.292,178.274h181.29l2.59,2.357v85.7H300.292Zm0,174.384V268.919h183.88v83.739Zm198.556,0V268.919h189.06v83.739Zm334.956,0H702.584V268.919H833.8Z" transform="translate(359.578 90.302)" fill="#f2f2f2"/>
      <path id="Path_4088-1271" data-name="Path 4088" d="M496.7,227.63a11.223,11.223,0,0,0-3.781-2.15,25.346,25.346,0,0,0-9.608-1.045,43.45,43.45,0,0,0-7.062.984L367.765,256.11q-3.073.863-6.043,2.011c-6.993-2.737-26.762-10.653-28.929-13.493l-8.5,2.486,14.175,21.159h0a1.942,1.942,0,0,0,.147,3.617c16.342,5.611,41.023-1.839,41.023-1.839l94.789-27.081S503.034,233.293,496.7,227.63Z" transform="translate(331.722 65.247)" fill="#090814"/>
      <ellipse id="Ellipse_691" data-name="Ellipse 691" cx="0.829" cy="1.381" rx="0.829" ry="1.381" transform="translate(701.846 325.686) rotate(-18.22)" fill="#f2f2f2"/>
      <ellipse id="Ellipse_692" data-name="Ellipse 692" cx="0.829" cy="1.381" rx="0.829" ry="1.381" transform="translate(705.148 324.597) rotate(-18.22)" fill="#f2f2f2"/>
      <ellipse id="Ellipse_693" data-name="Ellipse 693" cx="0.829" cy="1.381" rx="0.829" ry="1.381" transform="translate(711.45 322.522) rotate(-18.22)" fill="#f2f2f2"/>
      <ellipse id="Ellipse_696" data-name="Ellipse 696" cx="0.829" cy="1.381" rx="0.829" ry="1.381" transform="translate(735.62 315.507) rotate(-18.22)" fill="#f2f2f2"/>
      <ellipse id="Ellipse_697" data-name="Ellipse 697" cx="0.829" cy="1.381" rx="0.829" ry="1.381" transform="translate(738.883 314.429) rotate(-18.22)" fill="#f2f2f2"/>
      <ellipse id="Ellipse_698" data-name="Ellipse 698" cx="0.829" cy="1.381" rx="0.829" ry="1.381" transform="translate(742.088 313.377) rotate(-18.22)" fill="#f2f2f2"/>
      <ellipse id="Ellipse_699" data-name="Ellipse 699" cx="0.829" cy="1.381" rx="0.829" ry="1.381" transform="translate(744.983 312.423) rotate(-18.22)" fill="#f2f2f2"/>
      <ellipse id="Ellipse_700" data-name="Ellipse 700" cx="0.829" cy="1.381" rx="0.829" ry="1.381" transform="translate(748.1 311.397) rotate(-18.22)" fill="#f2f2f2"/>
      <ellipse id="Ellipse_701" data-name="Ellipse 701" cx="0.829" cy="1.381" rx="0.829" ry="1.381" transform="translate(751.355 310.321) rotate(-18.22)" fill="#f2f2f2"/>
      <ellipse id="Ellipse_702" data-name="Ellipse 702" cx="0.829" cy="1.381" rx="0.829" ry="1.381" transform="translate(754.245 309.369) rotate(-18.22)" fill="#f2f2f2"/>
      <ellipse id="Ellipse_703" data-name="Ellipse 703" cx="0.829" cy="1.381" rx="0.829" ry="1.381" transform="translate(770.444 305.188) rotate(-18.22)" fill="#6c63ff" opacity="0.1"/>
      <ellipse id="Ellipse_704" data-name="Ellipse 704" cx="0.829" cy="1.381" rx="0.829" ry="1.381" transform="translate(776.756 303.112) rotate(-18.22)" fill="#6c63ff" opacity="0.1"/>
      <ellipse id="Ellipse_705" data-name="Ellipse 705" cx="0.829" cy="1.381" rx="0.829" ry="1.381" transform="translate(779.923 302.07) rotate(-18.22)" fill="#6c63ff" opacity="0.1"/>
      <ellipse id="Ellipse_706" data-name="Ellipse 706" cx="0.829" cy="1.381" rx="0.829" ry="1.381" transform="translate(783.001 301.057) rotate(-18.22)" fill="#6c63ff" opacity="0.1"/>
      <ellipse id="Ellipse_707" data-name="Ellipse 707" cx="0.829" cy="1.381" rx="0.829" ry="1.381" transform="translate(786.023 300.056) rotate(-18.22)" fill="#6c63ff" opacity="0.1"/>
      <ellipse id="Ellipse_708" data-name="Ellipse 708" cx="0.829" cy="1.381" rx="0.829" ry="1.381" transform="translate(789.454 298.936) rotate(-18.22)" fill="#6c63ff" opacity="0.1"/>
      <ellipse id="Ellipse_709" data-name="Ellipse 709" cx="0.829" cy="1.381" rx="0.829" ry="1.381" transform="translate(773.7 304.113) rotate(-18.22)" fill="#6c63ff" opacity="0.1"/>
      <ellipse id="Ellipse_710" data-name="Ellipse 710" cx="0.829" cy="1.381" rx="0.829" ry="1.381" transform="translate(708.546 323.478) rotate(-18.22)" fill="#f2f2f2"/>
      <rect id="Rectangle_884" data-name="Rectangle 884" width="3.056" height="5.326" transform="matrix(0.971, -0.24, 0.24, 0.971, 758.415, 308.164)" fill="#f2f2f2"/>
      <rect id="Rectangle_885" data-name="Rectangle 885" width="3.056" height="5.326" transform="matrix(0.971, -0.24, 0.24, 0.971, 793.368, 298.151)" fill="#6c63ff" opacity="0.1"/>
      <path id="Path_4089-1272" data-name="Path 4089" d="M383.327,185.21l-3.937,1.036,1.968,2.97,5.836-1.45Z" transform="translate(428.146 105.733)" fill="#6c63ff" opacity="0.1"/>
      <path id="Path_4090-1273" data-name="Path 4090" d="M517.741,225.481l-8.512,2.219-3.229-2,2.15-1.26A25.347,25.347,0,0,1,517.741,225.481Z" transform="translate(306.88 65.247)" fill="#6c63ff" opacity="0.1"/>
      <path id="Path_4091-1274" data-name="Path 4091" d="M324.3,250.246l14.175,21.228,23.153-10.264s-26.2-10-28.825-13.45Z" transform="translate(331.72 62.046)" fill="#090814"/>
      <path id="Path_4092-1275" data-name="Path 4092" d="M316.726,213.63l-37.406,10.1-2.21,4.42Z" transform="translate(442.129 101.848)" fill="#f2f2f2"/>
      <path id="Path_4093-1276" data-name="Path 4093" d="M865.79,128.868h-1.14a2.832,2.832,0,0,0,1.39-2.262h0c0-1.787-2.184-3.246-4.86-3.246H827.158c-2.676,0-4.86,1.459-4.86,3.246h0c0,1.778,2.184,3.237,4.86,3.237h1.131a2.823,2.823,0,0,0-1.381,2.262c0,1.528,1.588,2.806,3.712,3.151h-9.8c-2.668,0-4.852,1.459-4.852,3.246s2.184,3.237,4.852,3.237h34.022c2.668,0,4.86-1.459,4.86-3.237,0-1.519-1.6-2.806-3.721-3.151h9.8c2.668,0,4.852-1.459,4.852-3.246S868.458,128.868,865.79,128.868Z" transform="translate(264.503 79.053)" fill="#f2f2f2"/>
      <path id="Path_4094-1277" data-name="Path 4094" d="M438.63,164.628h-1.139a2.823,2.823,0,0,0,1.39-2.262h0c0-1.778-2.184-3.246-4.86-3.246H400c-2.676,0-4.86,1.468-4.86,3.246h0c0,1.787,2.184,3.246,4.86,3.246h1.131a2.823,2.823,0,0,0-1.39,2.262c0,1.519,1.6,2.8,3.721,3.142h-9.8c-2.668,0-4.852,1.459-4.852,3.246s2.184,3.246,4.852,3.246h34.031c2.668,0,4.852-1.459,4.852-3.246,0-1.519-1.588-2.806-3.712-3.151h9.8c2.668,0,4.852-1.459,4.852-3.237S441.3,164.628,438.63,164.628Z" transform="translate(322.901 74.164)" fill="#f2f2f2"/>
      <path id="Path_4095-1278" data-name="Path 4095" d="M926.242,317.688h-1.131a2.823,2.823,0,0,0,1.39-2.262h0c0-1.787-2.193-3.246-4.86-3.246H887.61c-2.668,0-4.852,1.459-4.852,3.246h0c0,1.787,2.184,3.246,4.852,3.246h1.14a2.806,2.806,0,0,0-1.39,2.262c0,1.519,1.6,2.8,3.721,3.142h-9.8c-2.668,0-4.852,1.459-4.852,3.246s2.184,3.246,4.852,3.246h34.031c2.668,0,4.852-1.459,4.852-3.246,0-1.519-1.589-2.806-3.712-3.151h9.79c2.676,0,4.86-1.459,4.86-3.237S928.918,317.688,926.242,317.688Z" transform="translate(256.237 53.239)" fill="#f2f2f2"/>
      <path id="Path_4101-1279" data-name="Path 4101" d="M655.712,163.43c-2.745,1.614-2.832,8.512-2.409,14.046.3,4.049.863,7.364.863,7.364L636.3,228.263s-6.621-30.94-6.725-44.753a10.242,10.242,0,0,1,.492-3.211C633.223,170.345,650.731,164.785,655.712,163.43Z" transform="translate(289.985 73.575)" fill="#090814"/>
      <path id="Path_4102-1280" data-name="Path 4102" d="M661.171,163s-.483.112-1.321.345A2.59,2.59,0,0,1,661.171,163Z" transform="translate(285.846 73.634)" fill="#090814"/>
      <path id="Path_4103-1281" data-name="Path 4103" d="M645.3,769.048l-7.191,5.18s-4.463,0-4.463,4.032-10.929,8.055-10.929,8.055-16.264,4.6-28.782,0c-4.057-1.493-5.3-4.049-4.826-7.165.993-6.5,9.5-15.384,15.617-21.9,4.135-4.394,6.043-10.221,6.854-15.263a45.6,45.6,0,0,0,.483-10.921l26.33-1.873a17.386,17.386,0,0,0,0,12.336,16.041,16.041,0,0,0,2.305,3.954c3.211,4.075,4.316,10.472,4.627,15.539a56.9,56.9,0,0,1-.026,8.029Z" transform="translate(295.531 -3.772)" fill="#090814"/>
      <path id="Path_4104-1282" data-name="Path 4104" d="M710.494,781.534s-2.011,6.043-20.866,8.063-16.152-11.948-16.152-11.948-.095-.4-.216-1.114a42.954,42.954,0,0,1-.069-14.279c.656-3.678.086-10.057-.734-15.9-.967-6.958-2.288-13.165-2.288-13.165l29.214,2.158s.509,5.948.8,11.957c.095,1.873.173,3.747.2,5.456a13.622,13.622,0,0,0,2.521,7.208,45.038,45.038,0,0,1,6.975,16.92,38.457,38.457,0,0,1,.535,4.109C710.477,781.37,710.494,781.534,710.494,781.534Z" transform="translate(284.435 -4.318)" fill="#090814"/>
      <path id="Path_4106-1283" data-name="Path 4106" d="M710.984,788.4s-2.011,6.043-20.866,8.063-16.152-11.948-16.152-11.948-.095-.4-.216-1.114c.863.449,1.6.863,1.934,1.053,1.727,1.01,3.272,2.4,5.068,3.341,4.316,2.27,9.539,1.6,14.365.863,2.288-.345,4.575-.691,6.854-1.114a17.331,17.331,0,0,0,5.016-1.485,29.9,29.9,0,0,0,3.384-2.3,38.489,38.489,0,0,1,.535,4.109C710.966,788.234,710.984,788.4,710.984,788.4Z" transform="translate(283.946 -11.183)" fill="#090814"/>
      <path id="Path_4109-1284" data-name="Path 4109" d="M641.964,729.19a17.386,17.386,0,0,0,0,12.336c-7.554,1.286-21.634,3.885-26.814.458a45.6,45.6,0,0,0,.483-10.921Z" transform="translate(291.957 -3.772)" opacity="0.1"/>
      <path id="Path_4110-1285" data-name="Path 4110" d="M700.247,747.3c-5.335.38-19.692,1.131-27.729-.95-.967-6.958-2.288-13.165-2.288-13.165l29.214,2.158S699.936,741.3,700.247,747.3Z" transform="translate(284.427 -4.318)" opacity="0.1"/>
      <path id="Path_4111-1286" data-name="Path 4111" d="M709.428,499.749s-.449,5.4-1.165,12.949c-1.614,17.145-4.593,45.452-6.906,47.757-3.315,3.324-1.873,27.755-.578,32.071s0,35.395,0,35.395a157.984,157.984,0,0,0-4.748,39.711c.432,20.719-5.611,31.51-5.611,31.51s-28.489,2.59-34.385-2.918,0-49.311,0-49.311,10.644-35.826,8.055-41.006-5.611-17.7-5.611-17.7v-43.6c-4.187-6.906-6.043-16.4-6.846-24.984a131.37,131.37,0,0,1-.06-22.066s-5.361,10.964-10.826,21.807c-4.938,9.8-9.962,19.493-11.223,20.926-2.59,3.022-.432,16.834,0,23.74s-4.748,20.719-4.748,20.719c6.475,3.885,7.77,49.639,7.77,49.639s-4.748,11.223,5.18,23.74,6.043,36.258,4.748,35.395-27.625,6.475-32.8,0-10.791-24.172-10.791-24.172,2.59-18.129-3.022-34.531c-4.161-12.155-9.263-40.652-11.628-54.612a55.639,55.639,0,0,1-.466-15.332c1.088-10.2,2.763-29.067,2.167-44.028-.2-4.878-.06-12.63.268-21.72,1.114-31.165,4.48-77.989,4.48-77.989l23.464-15.807,15.453-10.48,3.781.578,70.462,10.852,2.737,34.756Z" transform="translate(296.293 41.936)" fill="#e6e6e6"/>
      <path id="Path_4113-1287" data-name="Path 4113" d="M696.964,180.816s-48.344,38.7-39.418,30.932c4.886-4.265,1.563-22.445-2.443-37.985-3.3-12.82-7.053-23.853-7.053-23.853s42.2-39.478,39.133-7.2c-1.079,11.378-.181,19.467,1.433,25.182C691.577,178.347,696.964,180.816,696.964,180.816Z" transform="translate(287.459 78.143)" fill="#ffb9b9"/>
      <path id="Path_4115-1288" data-name="Path 4115" d="M692.322,177.94l-35.85,7.79-3.723,6.238s-7.623-3.306-8.2.432-2.728,26.762,1.727,28.92,10.221,3.6,15.254,2.883,10.644-6.337,14.391-8.495,17.551-13.381,17.551-13.381l6.906-9.634Z" transform="translate(288.079 71.591)" fill="#ffb9b9"/>
      <path id="Path_4118-1289" data-name="Path 4118" d="M669.05,198.249s20.935-22.886,25.9-19.251,8.175,12.492,8.175,12.492l-17.024,18.7Z" transform="translate(284.589 71.5)" fill="#ffb9b9"/>
      <path id="Path_4121-1290" data-name="Path 4121" d="M697.969,185.69s-24.785,26.762-39.582,28.558c-1.347.164-2.676.388-4.006.656-3.859.76-12.285,0-10.946-22.126l-1.873-3.919-11.508,7.053-3.885,31.648-6.906,81.149-10.213,90.36s31.363-3.021,40.143,4.895S660.416,360.8,660.416,360.8L684.441,257.2l25.614-66.62Z" transform="translate(292.791 70.532)" opacity="0.1"/>
      <path id="Path_4122-1291" data-name="Path 4122" d="M710.055,194.589l-25.614,66.62L660.416,364.8s-2.452,51.072-11.223,43.164c-2.866-2.59-8.149-4.006-13.959-4.739a126.59,126.59,0,0,0-21.513-.483c-2.866.155-4.67.328-4.67.328l10.213-90.36,6.906-81.149,3.885-31.648,11.508-7.053,1.873,3.919c0,.578-.06,1.148-.086,1.727-.812,20.443,7.278,21.168,11.033,20.425,1.329-.268,2.659-.492,4.006-.656,10.48-1.286,25.968-15.073,34.108-23,3.358-3.28,5.473-5.56,5.473-5.56Z" transform="translate(292.791 69.981)" opacity="0.1"/>
      <path id="Path_4123-1292" data-name="Path 4123" d="M710.055,191.589l-25.614,66.62L660.416,361.8s-2.452,51.072-11.223,43.164c-2.866-2.59-8.149-4.006-13.959-4.739a126.59,126.59,0,0,0-21.513-.483c-2.866.155-4.67.328-4.67.328l10.213-90.36,6.906-81.149,3.885-31.648,11.508-7.053,1.873,3.919c0,.578-.06,1.148-.086,1.727-.812,20.443,7.278,21.168,11.033,20.425,1.329-.268,2.659-.492,4.006-.656,10.48-1.286,25.968-15.073,34.108-23,3.358-3.28,5.473-5.56,5.473-5.56Z" transform="translate(292.791 70.391)" fill="#6c63ff"/>
      <path id="Path_4124-1293" data-name="Path 4124" d="M643.435,194.283c0,.578-.06,1.148-.086,1.727l-.2.138c-3.039,2-7.916,35.826-7.916,35.826l-6.328,86.182-11.654,64.315s-1.528,7.329-3.531,17.8c-2.866.155-4.67.328-4.67.328l10.213-90.36,6.906-81.149,3.885-31.648,11.508-7.053Z" transform="translate(292.791 69.889)" opacity="0.1"/>
      <path id="Path_4125-1294" data-name="Path 4125" d="M643.439,187.582s-6.906,5.594-9.945,7.6S625.578,231,625.578,231l-6.328,86.182L607.6,381.5s-10.359,49.639-12.518,75.106-11.223,18.129-11.223,18.129-6.768-19.856-22.877-21-7.77-10.221-7.77-10.221,9.436-68,15.643-80.113a5.584,5.584,0,0,1,.328-.6,37.735,37.735,0,0,0,2.987-8.5c6.138-23.171,13.985-80.286,13.985-80.286l4.895-70.79c12.518-20.434,51.417-19.726,51.417-19.726Z" transform="translate(300.721 70.833)" fill="#090814"/>
      <path id="Path_4126-1295" data-name="Path 4126" d="M714.2,191.585,688.587,258.2,664.562,361.8s-2.452,51.072-11.223,43.164c-2.866-2.59-8.149-4.006-13.959-4.739.1-17.559.639-49.069,3.168-62.312a175.964,175.964,0,0,0,2.728-36.69l31.372-68.346s23.594-29.084,23.74-33.245c.052-1.537-1.623-4.385-3.747-7.381,3.358-3.281,5.473-5.56,5.473-5.56Z" transform="translate(288.645 70.395)" opacity="0.1"/>
      <path id="Path_4127-1296" data-name="Path 4127" d="M634.71,486.576l5.758-74.821s-.432-55.829,3.168-74.674a175.959,175.959,0,0,0,2.728-36.69l31.372-68.346s23.594-29.084,23.74-33.245-12.362-18-12.362-18,27.323,3.194,30.923,15.418S743.346,213.2,743.346,213.2s9.5,8.633,9.349,33.383-30.215,44.166-30.215,44.166-5.033,46.618-.717,67.63.57,123.157.57,123.157-28.92.294-47.049,5.042S634.71,486.576,634.71,486.576Z" transform="translate(289.283 71.2)" fill="#090814"/>
      <path id="Path_4128-1297" data-name="Path 4128" d="M684.05,393.747,706.2,477.624s3.021,7.485,18.561,1.727,60.724-24.457,60.724-24.457,4.023-6.621-3.453-18.846L759.441,369.86Z" transform="translate(282.538 45.353)" fill="#d6d6e3"/>
      <path id="Path_4129-1298" data-name="Path 4129" d="M596.84,392.082l35.826-39.392,22.877-9.28,9.384,47.369-43.484,47.265Z" transform="translate(398.418 84.105)" fill="#f2f2f2"/>
      <path id="Path_4130-1299" data-name="Path 4130" d="M757.955,455.74s-10.653,6.267-13.467,6.475-12.716,18.923-8.529,18.776,13.925-5.18,12.949-2.59-7.329,10.359-9.168,9.617-2.7,5.706,5.18,3.453,18.345-4.2,18.345-4.2,5.611-4.1,5.827-7.019,5.076-18.241,5.076-18.241Z" transform="translate(279.464 25.311)" fill="#ffb9b9"/>
      <path id="Path_4131-1300" data-name="Path 4131" d="M563.49,193.639s9.22-19.907,14.728-26.486,29.533-13.657,31.942-11.715-12.086,12.846-14.676,14.244,16.731,14.391,17.128,14.676,15.108-1.3,7.554,3.66-29.887,10.014-29.887,10.014a11.223,11.223,0,0,0-8.633,2.072C577.32,203.238,563.49,193.639,563.49,193.639Z" transform="translate(299.02 74.712)" fill="#ffb9b9"/>
      <path id="Path_4138-1301" data-name="Path 4138" d="M781.521,380.533c-.086,1.252-.164,2.5-.242,3.747-.216,3.807-.363,7.58-.458,11.223-.432,16.869.268,30.785.268,30.785s-13.381-8.054-27.625-1.295l-1.416-27.3v-.475l-1.459-11.939-4.731-38.563s-8.918-53.524-11.654-55.535,20.287-45.323,20.287-45.323l11.775,9.617,7.338,49.492v25.32S783.1,357.8,781.521,380.533Z" transform="translate(275.712 62.306)" fill="#090814"/>
      <path id="Path_4139-1302" data-name="Path 4139" d="M582.51,202.57l-2.763,5.482c-3.324,5.24-8.357,11.421-8.357,11.421s-19.631-9.03-19.631-9.427,5.957-9.781,10.8-17.179c1.493-1.683,2.4-2.676,2.4-2.676C559.2,204.434,582.51,202.57,582.51,202.57Z" transform="translate(300.624 69.917)" opacity="0.1"/>
      <path id="Path_4140-1303" data-name="Path 4140" d="M594.891,200.246l-8.055,4.04s-9.928,13.381-12.8,14.823-4.316,1.295-4.316,1.295L578.2,203.57s-23.309,1.865-17.551-12.38c0,0-26.045,28.488-28.92,40,0,0-14.391,23.879-10.938,35.68s17.412,14.1,27.478,10.506,41.006-19.424,41.006-19.424Z" transform="translate(304.93 69.78)" fill="#090814"/>
      <path id="Path_4141-1304" data-name="Path 4141" d="M570.028,234.19s-21.72,24.319-19.994,27.625S568.88,239.085,570.028,234.19Z" transform="translate(300.873 63.901)" opacity="0.1"/>
      <path id="Path_4142-1305" data-name="Path 4142" d="M681.524,158.174s30.569-9.211,47.835,24.025,17.844,35.542,16.981,37.121-34.385-7.191-36.258-3.306,18.992,19.856,18.992,19.856L648.21,297.164l33.979-72.205a54.39,54.39,0,0,1,9-13.873c5.585-6.25,13.226-15.824,10.515-18.777-2.383-2.59-6.19-9.349-11.335-17.128C686.626,169.484,680.644,163.043,681.524,158.174Z" transform="translate(287.438 74.454)" opacity="0.2"/>
      <path id="Path_4143-1306" data-name="Path 4143" d="M680.661,157.174S711.23,147.963,728.5,181.2s17.844,35.542,16.981,37.121-34.385-7.191-36.258-3.306,18.992,19.856,18.992,19.856l-80,62.157,33.116-73.069a54.388,54.388,0,0,1,9-13.873c5.585-6.25,13.226-15.824,10.515-18.777-2.383-2.59-6.19-9.349-11.335-17.128C685.763,168.484,679.78,162.043,680.661,157.174Z" transform="translate(287.438 74.59)" fill="#090814"/>
      <path id="Path_4144-1307" data-name="Path 4144" d="M680.661,157.174S711.23,147.963,728.5,181.2s17.844,35.542,16.981,37.121-34.385-7.191-36.258-3.306,18.992,19.856,18.992,19.856l-80,62.157,34.7-76.582a30.343,30.343,0,0,1,5.378-8.106c5.473-5.888,15.643-17.689,12.578-21.03-2.383-2.59-6.19-9.349-11.335-17.128C685.763,168.484,679.78,162.043,680.661,157.174Z" transform="translate(287.438 74.59)" opacity="0.1"/>
      <path id="Path_4149-1308" data-name="Path 4149" d="M687.036,165.195a34.375,34.375,0,0,1-3.185,2.27c-5.482,3.453-10.359,8.141-17.344,8.141a35.335,35.335,0,0,1-11.4-1.873c-3.3-12.82-7.053-23.853-7.053-23.853s42.2-39.478,39.133-7.2C686.1,154.058,685.422,159.48,687.036,165.195Z" transform="translate(287.459 78.147)" opacity="0.1"/>
      <path id="Path_4150-1309" data-name="Path 4150" d="M699.263,134.157a35.283,35.283,0,1,1-10.334-25.113,35.447,35.447,0,0,1,10.334,25.113Z" transform="translate(290.15 82.423)" fill="#ffb9b9"/>
      <path id="Path_4151-1310" data-name="Path 4151" d="M637.543,170.718a4.127,4.127,0,0,1-1.657,1.942l-5.629,3.453-10.523,6.4L603.08,192.628q-.587.345-1.191.647a14.331,14.331,0,0,1-12.63.173,10.36,10.36,0,0,1-5.9-7.355,12.285,12.285,0,0,1,4.506-12.086.647.647,0,0,1,.311-.155,30.637,30.637,0,0,0,9.841-4.817l10.48-7.252,9.358-8.555,4.731-3.272a4.411,4.411,0,0,1,4.757-.173C632.225,152.554,641.859,159.814,637.543,170.718Z" transform="translate(296.335 75.525)" fill="#e1e7ef"/>
      <path id="Path_4152-1311" data-name="Path 4152" d="M634.056,176.7l-10.523,6.4c-2.193-8.84-7.77-15.082-12.613-19.8l10.739-9.5C629.826,157.859,633.072,171.387,634.056,176.7Z" transform="translate(292.536 74.89)" fill="#6c63ff"/>
      <path id="Path_4153-1312" data-name="Path 4153" d="M601.889,197.159a14.33,14.33,0,0,1-12.63.173,10.36,10.36,0,0,1-5.9-7.355,12.285,12.285,0,0,1,4.506-12.086,26.529,26.529,0,0,1,7.165,4.5,20.132,20.132,0,0,1,6.2,9.755A20.715,20.715,0,0,1,601.889,197.159Z" transform="translate(296.335 71.598)" opacity="0.1"/>
      <path id="Path_4155-1313" data-name="Path 4155" d="M629.59,92.848c.751-4.981,4.86-9.652,9.893-9.738,4.152-.069,7.692,2.745,11.37,4.67a28.713,28.713,0,0,0,24.483.863c2.262-.984,4.55-2.3,7.01-2.106s4.429,1.813,6.129,3.453a41.015,41.015,0,0,1,9.3,14.072,12.026,12.026,0,0,0,2.365,4.377,15.95,15.95,0,0,0,2.952,1.96,16.229,16.229,0,0,1,6.975,10.506,23.134,23.134,0,0,1-1.269,12.733,19.364,19.364,0,0,1-4.61,7.39c-1.571,1.476-3.453,2.59-5.1,3.971a20.374,20.374,0,0,0-6.906,18.889c-4.593,1.062-9-3.056-10.359-7.562s-.578-9.341-.509-14.046c0-2.089-.294-4.558-2.132-5.56-1.528-.863-3.453-.242-4.955.6s-3,1.942-4.722,2.141c-2.59.294-4.955-1.519-6.406-3.669s-2.279-4.644-3.66-6.837c-1.8-2.892-4.489-5.111-7.122-7.269-3.013-2.478-5.939-5.24-9.142-7.467-1.925-1.338-4.221-1.96-6.112-3.306C631.351,106.824,629.59,99.366,629.59,92.848Z" transform="translate(289.983 84.556)" fill="#090814"/>
      <path id="Path_4156-1314" data-name="Path 4156" d="M661.171,163s-.483.112-1.321.345A2.59,2.59,0,0,1,661.171,163Z" transform="translate(285.846 73.634)" opacity="0.1"/>
      <g id="Group_244" data-name="Group 244" transform="translate(919.573 171.024)" opacity="0.1">
        <path id="Path_4157-1315" data-name="Path 4157" d="M683.563,154.034c-1.338-4.515-.578-9.341-.509-14.046,0-2.089-.294-4.558-2.132-5.56-1.528-.863-3.453-.233-4.955.6s-3,1.942-4.722,2.141c-2.59.294-4.955-1.519-6.406-3.66s-2.279-4.653-3.66-6.846c-1.813-2.883-4.489-5.1-7.122-7.269-3.013-2.478-5.939-5.24-9.142-7.467-1.925-1.338-4.221-1.951-6.112-3.306-5.724-4.092-7.485-11.551-7.485-18.069A12.181,12.181,0,0,1,632.456,87a12.449,12.449,0,0,0-2.866,6.181c0,6.518,1.727,13.977,7.485,18.069,1.891,1.355,4.187,1.968,6.112,3.306,3.2,2.227,6.129,4.99,9.142,7.467,2.633,2.167,5.309,4.386,7.122,7.269,1.381,2.193,2.2,4.7,3.66,6.846s3.833,3.954,6.406,3.66c1.727-.2,3.194-1.3,4.722-2.141s3.453-1.433,4.955-.6c1.839,1,2.167,3.453,2.132,5.56-.069,4.7-.863,9.5.509,14.046s5.75,8.633,10.359,7.562a19.544,19.544,0,0,1-.276-2.452C688.086,161.433,684.711,157.885,683.563,154.034Z" transform="translate(-629.59 -87)"/>
        <path id="Path_4158-1316" data-name="Path 4158" d="M716.48,146.687c-1.571,1.485-3.453,2.59-5.1,3.971a19.519,19.519,0,0,0-4.5,5.439,18.4,18.4,0,0,1,2.771-2.849c1.658-1.381,3.531-2.486,5.1-3.971a17.066,17.066,0,0,0,3.142-4.127A14.929,14.929,0,0,1,716.48,146.687Z" transform="translate(-640.156 -94.95)"/>
      </g>
      <path id="Path_4159-1317" data-name="Path 4159" d="M662.084,501.727c-.63,1.873-1.528,3.7-1.649,5.68-.207,3.367,1.847,6.492,1.994,9.867.173,3.911-2.21,7.424-4.489,10.618,2.7,0,5.654-.941,7.027-3.263a10.918,10.918,0,0,0,1.01-2.84c2.443-9.747,4.817-20.408.57-29.507a13.279,13.279,0,0,0-2.806-4.213C663.025,492.663,663.629,497.178,662.084,501.727Z" transform="translate(286.107 29.193)" opacity="0.1"/>
      <path id="Path_4160-1318" data-name="Path 4160" d="M582.686,418.355l-7.174-9.677c-1.727-2.34-3.514-4.774-4.135-7.614-.673-3.116.112-6.345.216-9.5v-1.079a5.594,5.594,0,0,1,.328-.6,37.735,37.735,0,0,0,2.987-8.5,10.361,10.361,0,0,1,2.383,3.669c3.341,8.149.25,17.715,3.013,26.071C581.1,413.52,582.393,415.817,582.686,418.355Z" transform="translate(297.979 43.778)" opacity="0.1"/>
      <rect id="Rectangle_886" data-name="Rectangle 886" width="5.396" height="164.715" transform="translate(844.277 444.936)" fill="#d6d6e3"/>
      <rect id="Rectangle_887" data-name="Rectangle 887" width="5.404" height="164.715" transform="translate(861.034 444.936)" fill="#d6d6e3"/>
      <circle id="Ellipse_718" data-name="Ellipse 718" cx="9.229" cy="9.229" r="9.229" transform="translate(823.109 760.71)" fill="#090814"/>
      <path id="Path_4166-1319" data-name="Path 4166" d="M490.71,585.429s9.2-7.485,17.266-4.895,29.058,5.18,32.8,18.414,0,158.56,0,158.56-17.879,4.645-22.739,2.3-4.316-24.172-4.316-24.172l-1.433-128.88Z" transform="translate(308.97 16.626)" fill="#6c63ff"/>
      <path id="Path_4167-1320" data-name="Path 4167" d="M490.71,585.429s9.2-7.485,17.266-4.895,29.058,5.18,32.8,18.414,0,158.56,0,158.56-17.879,4.645-22.739,2.3-4.316-24.172-4.316-24.172l-1.433-128.88Z" transform="translate(308.97 16.626)" opacity="0.1"/>
      <path id="Path_4168-1321" data-name="Path 4168" d="M578.9,750.614l-38.736,8.633-.406-6.906-.25-135.6A41.325,41.325,0,0,0,523.3,584h0s20.054-.268,35.395,6.665c3.28,1.476,6.57,2.927,9.945,4.17,4.187,1.545,9.867,4.834,10.23,11.326.466,8.46,2.089,92.268,2.668,122.777A77.483,77.483,0,0,1,578.9,750.614Z" transform="translate(304.514 16.078)" fill="#6c63ff"/>
      <rect id="Rectangle_888" data-name="Rectangle 888" width="8.995" height="14.097" transform="translate(841.765 432.704)" fill="#090814"/>
      <rect id="Rectangle_890" data-name="Rectangle 890" width="8.995" height="14.097" transform="translate(858.668 434.931)" fill="#090814"/>
      <path id="Path_4169-1322" data-name="Path 4169" d="M565.343,391.847h-9.021a8.944,8.944,0,0,0-7.916,5.249c-.13.276-.25.561-.363.863l-1.986-1.917-4.127-3.988-2.521-2.434S556.063,381.2,565.343,391.847Z" transform="translate(302.312 43.084)" fill="#090814"/>
      <circle id="Ellipse_719" data-name="Ellipse 719" cx="9.229" cy="9.229" r="9.229" transform="translate(862.354 767.211)" fill="#090814"/>
      <circle id="Ellipse_720" data-name="Ellipse 720" cx="9.229" cy="9.229" r="9.229" transform="translate(767.065 754.615)" fill="#090814"/>
      <path id="Path_4170-1323" data-name="Path 4170" d="M479.062,584s-26.192,6.906-27.625,72.81-1.727,72.8-1.727,72.8.57,18.992,39.133,30.793h23.594l3.747-151.369S511.867,585.977,479.062,584Z" transform="translate(314.575 16.078)" fill="#6c63ff"/>
      <circle id="Ellipse_721" data-name="Ellipse 721" cx="9.229" cy="9.229" r="9.229" transform="translate(798.359 775.256)" fill="#090814"/>
    </g>
  </g>
</svg>