<svg xmlns="http://www.w3.org/2000/svg" width="638.584" height="605.474" viewBox="0 0 638.584 605.474" xmlns:xlink="http://www.w3.org/1999/xlink" role="img" artist="Katerina Limpitsouni" source="https://undraw.co/"><g transform="translate(-633.764 -401.46)"><g transform="translate(953.056 401.46)"><path d="M339.9,485.659s-30.874-14.751-30.38-2.012,31.121,21.121,31.121,21.121Z" transform="translate(-309.511 -311.222)" fill="#9f616a"/><path d="M224.961,571.962S210.4,607.614,205.014,633.34s-13.578,61.13-3.035,86.239,40.517,98.9,40.825,106.866-2.567,16.048,3.8,15.8,41.033-11.16,42.44-16-11.826-17.085-11.826-17.085l-32.678-102.4,34.094-66.711,24.592,99.521,4.817,124.211s23.64-7.3,27.071-1.05c0,0,10.591-14.764,11.937-21.2s-5-128.988-5-128.988,21.7-139.593,4.182-138.914S260.105,532.323,224.961,571.962Z" transform="translate(-177.637 -289.734)" fill="#2f2e41"/><path d="M266.378,776.638s-16.158,35.713-17.689,37.367-12.06,18.011-4.1,17.7,26.763-9.012,40.6-22.307,32.083-36.331,30.429-37.861-12.987-5.876-12.987-5.876Z" transform="translate(-197.656 -230.495)" fill="#2f2e41"/><path d="M211.593,790.338s-.975,15.986-3.913,22.479-2.567,16.048,5.395,15.739,28.54-.284,28.54-.284,1.222-9.616-.432-11.147-8.7-22.813-5.7-27.714S211.593,790.338,211.593,790.338Z" transform="translate(-78.308 -224.371)" fill="#2f2e41"/><path d="M224.155,384.75s16.974,26.454,23.591,32.577-12,19.6-12,19.6l-33.318,4.482s.419-30.318-1.3-33.441S224.155,384.75,224.155,384.75Z" transform="translate(-79.091 -337.564)" fill="#9f616a"/><path d="M227.955,412.509s6.864,12.493,13.234,12.246,31.85-10.322,33.257-15.161,18.38,30.7,18.38,30.7l-80.62,141.878-19.665-13.591,9.528-83.3,7.826-44.959Z" transform="translate(-111.85 -330.708)" fill="#f2f2f2"/><path d="M305.723,539.579a44.614,44.614,0,0,0-4.946,20.925c.012.319.025.637.053.955.763,14.739,6.192,31.784,8.14,44.18,1.413,8.892,1.011,15.383-4.193,16.908-12.616,3.679,1.839,6.308-46.971,22.554s-57.328,2.223-57.451-.962,6.912-27.38,5.258-28.911-23.146,20.036-29.639,17.1-.741-19.109-.741-19.109,14.628-34.059,14.319-42.021,22.158-45.515,22.158-45.515l15.281-99.473s5.876-12.987,13.776-14.888c4.977-1.034,10.924,3.087,15.219,5.808l.086,4.9L242,443.17l-13.948,51.576,2.333,19.048s16.22-34.121,26.873-47.292,33.366-44.355,33.366-44.355-5.7,8.088-9.7,2.741c-4-5.363,18.617-28.835,27.444-6.85,4.678,11.652,21.356,25.718,26.114,41.9,4.24,14.333,6.243,27.731,2.042,35.39C330.105,507.023,313.956,522.4,305.723,539.579Z" transform="translate(-132.687 -330.803)" fill="#f2f2f2"/><path d="M210.1,484.973c-6.42,11.7-22.569,27.078-30.8,44.255-2.15-7.747-4.774-15.763-4.774-15.763s-10.062-53.835,19.7-67.747a19.919,19.919,0,0,1,13.834,3.865C212.295,463.916,214.3,477.315,210.1,484.973Z" transform="translate(-6.259 -320.453)" opacity="0.1" style="isolation:isolate"/><path d="M328.865,473.692l-25.232,7.358L268.6,482.408,265,512.85,322.57,517S336.951,476.568,328.865,473.692Z" transform="translate(-243.176 -312.564)" fill="#f2f2f2"/><path d="M252.977,553.589s-33.756,5.6-26.051,15.758,37.608-.521,37.608-.521Z" transform="translate(-126.144 -290.106)" fill="#9f616a"/><path d="M236.9,438.263s26.948-4.235,25.492,40.477,2.841,73.252-8,81.647-46.044,46.441-54.006,46.75-20.764-.79-25.479.988-7.481-28.417-7.481-28.417,2.814-9.678,15.369-14.95,42.131-23.962,41.884-30.331S217.2,506.01,217.2,506.01,207.142,452.176,236.9,438.263Z" transform="translate(-49.313 -322.552)" fill="#f2f2f2"/><ellipse cx="35.06" cy="35.06" rx="35.06" ry="35.06" transform="translate(86.241 16.238)" fill="#9f616a"/><path d="M226.526,350.287a6.77,6.77,0,0,1-2.948,1.479,2.1,2.1,0,0,1-2.438-1.689,8.741,8.741,0,0,1-3.345,4.29c-1.638.854-4.17.138-4.406-1.694a7.729,7.729,0,0,1-1.779,3.755,2.665,2.665,0,0,1-3.746.125c.717,3.92.275,7.95.5,11.929s1.286,8.2,4.292,10.812c4.383,3.815,10.975,2.873,16.741,2.151a5.082,5.082,0,0,1,2.623.144c2.159.92,2.061,3.925,2.09,6.272a17.426,17.426,0,0,0,15.259,16.548,8.736,8.736,0,0,0,6.492-1.584c1.637-1.388,2.473-3.649,4.349-4.692,3.051-1.7,6.752.777,8.983,3.462s4.43,5.988,7.886,6.479c4.571.65,8.052-4.008,9.761-8.3a48.372,48.372,0,0,0-.961-37.586C276.335,341.386,243.731,338.1,226.526,350.287Z" transform="translate(-127.72 -343.206)" fill="#2f2e41"/></g><g transform="translate(677.663 568.998)"><circle cx="14.542" cy="14.542" r="14.542" transform="translate(185.74 407.241)" fill="#3f3d56"/><path d="M443.733,584.094S478.1,479.656,480.749,472.385s30.406,4.627,37.677,6.61,5.288,9.254,5.288,9.254L486.7,595.331l11.237,5.288,34.372-107.743c19.83-20.491,5.288-21.813,5.288-21.813s-42.3-14.542-58.168-15.864-9.915,17.847-9.915,17.847L431.174,574.84Z" transform="translate(-232.874 -455.134)" fill="#3f3d56"/><path d="M603.231,569.243l-.007-.007a41.219,41.219,0,0,0-19.823-15.2q-.426-.159-.991-.357c-18.21-6.365-145.089-40.625-145.089-40.625S412.2,503.8,400.965,528.923s-78,233.333-78,233.333,130.574,69.828,168.641,77.429a22.99,22.99,0,0,0,7.185.568,101.312,101.312,0,0,0,19.017-4.541,79.6,79.6,0,0,0,19.321-9.34l74.032-221.435S621.739,580.481,603.231,569.243Z" transform="translate(-309.748 -415.165)" fill="#6c63ff"/><path d="M533.185,551.678l-.007-.007a41.223,41.223,0,0,0-19.824-15.2q-.426-.159-.991-.357c5.989,10.5,8.263,26.8,8.263,26.8s-72.71,216.147-79.32,236.638c-5.037,15.619-15.2,20.927-19.744,22.566a22.989,22.989,0,0,0,7.185.568,101.3,101.3,0,0,0,19.017-4.541,42.3,42.3,0,0,0,4.779-6.7s74.032-221.435,80.642-232.011S533.185,551.678,533.185,551.678Z" transform="translate(-239.702 -397.6)" fill="#3f3d56"/><circle cx="14.542" cy="14.542" r="14.542" transform="translate(141.123 407.571)" fill="#3f3d56"/><circle cx="14.542" cy="14.542" r="14.542" transform="translate(0 346.429)" fill="#3f3d56"/></g><path d="M175,709.7c0-.708.336-1.281.751-1.281H812.833c.415,0,.751.574.751,1.281s-.336,1.281-.751,1.281H175.751C175.336,710.985,175,710.411,175,709.7Z" transform="translate(458.764 295.95)" fill="#cbcbcb"/></g></svg>